<?xml version="1.0" encoding="iso-8859-1"?>
<!-- Generator: Adobe Illustrator 18.1.1, SVG Export Plug-In . SVG Version: 6.00 Build 0)  -->
<svg xmlns="http://www.w3.org/2000/svg" xmlns:xlink="http://www.w3.org/1999/xlink" version="1.1" id="Capa_1" x="0px" y="0px" viewBox="0 0 21.365 21.365" style="enable-background:new 0 0 21.365 21.365;" xml:space="preserve" width="512px" height="512px">
<g>
	<g>
		<path d="M7.187,3.591C6.822,4.27,4.707,7.678,6.13,11.634c-0.043-0.097-0.086-0.194-0.127-0.295    C4.549,7.363,6.861,3.703,7.044,3.373c0,0,0.546-0.802,0.354-1.673C7.357,1.517,7.286,1.269,7.191,1.103    c0.161,0.22,0.304,0.533,0.355,0.802C7.72,2.831,7.187,3.591,7.187,3.591z M5.375,11.126c0.769,2.111,2.129,3.222,2.515,3.567    c0.116,0.095,0.228,0.156,0.335,0.201c-0.299,0.588-0.518,0.924-0.518,0.924c-0.099,0.164-0.074,0.326,0.076,0.432    c0.226,0.139,0.453-0.277,0.453-0.277s0.211-0.36,0.493-0.985c0.128-0.009,0.208-0.037,0.208-0.037s3.22-1.101,3.64-4.89    c0.033-0.306,0.052-0.612,0.056-0.916c-0.004,0.246-0.021,0.493-0.046,0.74c-0.001,0.007-0.002,0.012-0.003,0.02    c0.135-1.442-0.056-2.878-0.569-4.211c0.395,1.236,0.613,2.339,0.452,3.845c-0.332,3.098-2.51,4.352-3.403,4.684    c0.949-2.041,3.064-8.012-1.536-13.042c-0.092-0.1-0.172-0.202-0.269-0.302C7.222,0.842,7.194,0.802,7.156,0.764    c0.006,0.006,0.01,0.013,0.015,0.019c-0.005-0.006-0.01-0.012-0.015-0.018c0.019,0.023,0.036,0.046,0.055,0.069    c4.427,5.304,2.365,11.272,1.156,13.776c-0.125-0.043-0.261-0.111-0.403-0.228c-0.38-0.341-1.63-1.444-2.395-3.509    C4.244,6.919,6.73,3.361,6.927,3.04c0,0,0.42-0.712,0.305-1.519c-0.111-0.77-0.837-1.354-1.02-1.49C6.185,0.01,6.169,0,6.169,0    s0.014,0.012,0.025,0.021c0.007,0.006,0.01,0.009,0.021,0.018c0.016,0.014,0.034,0.03,0.058,0.052    c0.016,0.015,0.03,0.028,0.049,0.046c0.022,0.022,0.049,0.048,0.075,0.075c0.023,0.023,0.044,0.044,0.068,0.07    C6.491,0.31,6.518,0.34,6.546,0.372c0.027,0.031,0.053,0.06,0.081,0.094C6.655,0.5,6.681,0.536,6.708,0.572    c0.027,0.036,0.054,0.071,0.081,0.109c0.027,0.04,0.052,0.083,0.077,0.125C6.89,0.845,6.914,0.882,6.935,0.923    c0.026,0.049,0.046,0.101,0.068,0.152c0.015,0.036,0.034,0.071,0.046,0.109c0.031,0.09,0.053,0.181,0.064,0.274    c0.11,0.934-0.401,1.725-0.401,1.725C6.52,3.504,4.054,7.097,5.375,11.126z M17.33,18.12c-0.511,0.459-3.007,2.999-6.782,2.772    c0.094,0.013,0.189,0.023,0.286,0.032c3.801,0.248,6.474-2.513,6.72-2.741c0,0,0.577-0.637,1.381-0.686    c0.17-0.01,0.401-0.011,0.567,0.027c-0.188-0.064-0.429-0.106-0.646-0.106c-0.045,0.001-0.092,0.003-0.136,0.007    C17.874,17.503,17.33,18.12,17.33,18.12z M19.64,17.684c0.026,0.004,0.053,0.004,0.077,0.01c0.123,0.023,0.24,0.06,0.351,0.101    c0.043,0.015,0.086,0.03,0.125,0.046c0.084,0.036,0.162,0.071,0.229,0.106c0.166,0.085,0.272,0.155,0.272,0.155    s-0.012-0.01-0.023-0.018c-0.116-0.087-0.813-0.587-1.544-0.491c-0.729,0.097-1.257,0.61-1.257,0.61    c-0.236,0.236-2.779,3.115-6.532,2.97c-1.974-0.137-3.221-0.897-3.604-1.129C7.6,19.955,7.51,19.861,7.445,19.77    c-0.008-0.012-0.009-0.021-0.016-0.032c0.781-0.703,2.645-2.177,5.19-2.873c0.09-0.025,0.184-0.044,0.274-0.066    c0.125-0.028,0.25-0.059,0.379-0.085c0.205-0.043,0.416-0.079,0.631-0.111c0.016-0.002,0.031-0.004,0.047-0.006    c0.367-0.051,0.746-0.078,1.131-0.094c0.166-0.006,0.33-0.016,0.499-0.013c1.296,0.024,2.692,0.301,4.155,0.958    c0.004,0.002,0.009,0.005,0.013,0.007c0.017,0.007,0.034,0.011,0.051,0.019c0.003,0,0.006,0.002,0.009,0.002    c0,0-0.002,0-0.004-0.002c0.002,0.002,0.004,0.002,0.006,0.002c-0.004,0-0.006-0.002-0.009-0.002    c-0.034-0.019-0.067-0.029-0.103-0.047c-0.146-0.074-0.289-0.131-0.435-0.197c-1.452-0.672-2.858-0.957-4.163-0.957    c-3.529-0.002-6.333,1.914-7.477,2.832c0.089-0.81,0.692-2.89,3.32-3.896c1.277-0.488,2.292-0.57,3.459-0.542    c-0.236-0.019-0.474-0.028-0.711-0.028c-0.828,0-1.658,0.119-2.464,0.352c0.008-0.002,0.015-0.006,0.022-0.008    c-0.01,0.002-0.021,0.006-0.031,0.009c-0.256,0.071-0.523,0.138-0.772,0.235c-3.214,1.24-3.421,4.17-3.421,4.17    s-0.001,0.07,0.011,0.162c-0.484,0.381-0.755,0.642-0.755,0.642s-0.311,0.284-0.138,0.437c0.124,0.1,0.271,0.08,0.393-0.039    c0,0,0.247-0.26,0.686-0.639c0.063,0.078,0.134,0.156,0.244,0.229c0.392,0.233,1.683,1.045,3.7,1.172    c1.432,0.048,2.688-0.322,3.712-0.815c1.706-0.821,2.767-1.983,2.915-2.13c0,0,0.227-0.237,0.6-0.447    c0.006-0.003,0.014-0.006,0.021-0.01c0.069-0.038,0.142-0.075,0.22-0.109c0.172-0.076,0.365-0.139,0.575-0.171    c0.005-0.001,0.01,0,0.014-0.001C19.362,17.653,19.502,17.662,19.64,17.684z M1.909,11.217c-0.084-0.16-0.235-0.329-0.38-0.438    c0.093,0.086,0.185,0.229,0.246,0.337c0.291,0.512,0.102,1.123,0.102,1.123c-0.051,0.243-0.801,3.003,0.888,5.229    c0.046,0.056,0.092,0.109,0.137,0.162c-1.664-2.221-0.99-4.78-0.893-5.278C2.009,12.352,2.198,11.767,1.909,11.217z M5.304,19.166    c0,0-0.046,0.031-0.112,0.061c-0.057,0.453-0.12,0.731-0.12,0.731S5.01,20.266,4.84,20.221c-0.115-0.035-0.162-0.134-0.131-0.257    c0,0,0.073-0.26,0.147-0.687c-0.075-0.008-0.155-0.02-0.247-0.057c-0.311-0.144-1.478-0.597-2.373-1.779    c-1.615-2.286-0.716-5.034-0.656-5.275c0,0,0.191-0.567-0.06-1.134c-0.176-0.399-0.667-0.663-0.808-0.732    c-0.016-0.008-0.023-0.012-0.029-0.014c-0.004-0.002-0.012-0.006-0.012-0.006s0.021,0.007,0.049,0.018    c0.161,0.059,0.702,0.284,0.915,0.735c0.23,0.487,0.103,1.018,0.103,1.018c-0.062,0.24-0.941,2.967,0.662,5.205    c0.881,1.154,1.884,1.608,2.19,1.751c0.113,0.046,0.212,0.062,0.299,0.065c0.278-1.813,0.425-5.979-3.405-8.47    c-0.013-0.009-0.023-0.018-0.036-0.027c-0.002-0.001-0.004-0.003-0.006-0.004c0.001,0,0.002,0.001,0.002,0.002    c-0.001-0.001-0.002-0.002-0.003-0.003c0.002,0.001,0.003,0.003,0.005,0.004c0.03,0.016,0.054,0.034,0.083,0.051    c0.08,0.044,0.15,0.092,0.227,0.137c3.877,2.281,3.702,6.457,3.5,7.929c0.499-0.383,1.629-1.596,1.238-3.614    c-0.19-0.981-0.542-1.636-1.03-2.338c0.568,0.724,0.959,1.569,1.158,2.481c-0.029-0.143-0.061-0.285-0.101-0.424    c0.058,0.193,0.106,0.389,0.143,0.587c0,0,0,0.001,0,0.003c0.001,0.008,0,0.014,0.002,0.021    C7.121,17.864,5.304,19.166,5.304,19.166z M2.224,11.11c-0.225-0.174-0.469-0.342-0.729-0.503    c-0.003-0.002-0.005-0.003-0.007-0.005c0.002,0.001,0.004,0.003,0.007,0.005C1.756,10.766,1.996,10.935,2.224,11.11z     M3.411,12.256c-0.012-0.015-0.022-0.031-0.034-0.046c-0.001-0.001-0.002-0.002-0.003-0.004c-0.013-0.017-0.03-0.031-0.044-0.047    C3.357,12.191,3.384,12.225,3.411,12.256z" fill="#933EC5"/>
	</g>
</g>
<g>
</g>
<g>
</g>
<g>
</g>
<g>
</g>
<g>
</g>
<g>
</g>
<g>
</g>
<g>
</g>
<g>
</g>
<g>
</g>
<g>
</g>
<g>
</g>
<g>
</g>
<g>
</g>
<g>
</g>
</svg>
