<?xml version="1.0" encoding="iso-8859-1"?>
<!-- Generator: Adobe Illustrator 19.0.0, SVG Export Plug-In . SVG Version: 6.00 Build 0)  -->
<svg version="1.1" id="Capa_1" xmlns="http://www.w3.org/2000/svg" xmlns:xlink="http://www.w3.org/1999/xlink" x="0px" y="0px"
	 viewBox="0 0 460 460" style="enable-background:new 0 0 460 460;" xml:space="preserve">
<g id="XMLID_484_">
	<path id="XMLID_486_" style="fill:#C0AB91;" d="M210,240h-40v70h-10c-16.542,0-30-13.458-30-30v-40H90v40c0,38.599,31.402,70,70,70
		h50V240z"/>
	<path id="XMLID_487_" style="fill:#A78966;" d="M330,280c0,16.542-13.458,30-30,30h-10v-70h-40v70h-40v150h40V350h50
		c38.598,0,70-31.401,70-70v-40h-40V280z"/>
	<path id="XMLID_488_" style="fill:#FF9478;" d="M230,200V0h-30c-55,0-100,45-100,100C45,100,0,145,0,200H230z"/>
	<path id="XMLID_489_" style="fill:#FF7956;" d="M460,200c0-55-45-100-100-100C360,45,315,0,260,0h-30v200H460z"/>
	<rect id="XMLID_493_" y="200" style="fill:#3FA45A;" width="230" height="40"/>
	<rect id="XMLID_496_" x="230" y="200" style="fill:#3FA45A;" width="230" height="40"/>
</g>
<g>
</g>
<g>
</g>
<g>
</g>
<g>
</g>
<g>
</g>
<g>
</g>
<g>
</g>
<g>
</g>
<g>
</g>
<g>
</g>
<g>
</g>
<g>
</g>
<g>
</g>
<g>
</g>
<g>
</g>
</svg>
